<svg width="426" height="118" viewBox="0 0 426 118" fill="none" xmlns="http://www.w3.org/2000/svg">
<path d="M189.52 59.1099C189.52 75.6699 177.58 87.6099 161.24 87.6099C144.9 87.6099 133.07 75.6699 133.07 59.1099C133.07 42.5499 144.91 30.3899 161.24 30.3899C177.57 30.3899 189.52 42.5599 189.52 59.1099ZM143.92 59.1099C143.92 70.1099 151.16 78.1099 161.24 78.1099C171.32 78.1099 178.67 70.1099 178.67 59.1099C178.67 48.1099 171.32 39.9299 161.24 39.9299C151.16 39.9299 143.92 47.9999 143.92 59.1099Z" fill="black"/>
<path d="M360.62 59.1099C360.62 75.6699 348.68 87.6099 332.34 87.6099C316 87.6099 304.17 75.6699 304.17 59.1099C304.17 42.5499 316 30.3899 332.35 30.3899C348.7 30.3899 360.63 42.5599 360.63 59.1099M315.04 59.1099C315.04 70.1099 322.28 78.1099 332.36 78.1099C342.44 78.1099 349.79 70.1099 349.79 59.1099C349.79 48.1099 342.45 39.9299 332.36 39.9299C322.27 39.9299 315 47.9999 315 59.1099" fill="black"/>
<path d="M50.74 5.80988V59.8499L0.43 4.37988H0V53.4199L11.18 65.7699V32.2299L61.49 87.7999H61.92V5.80988H50.74Z" fill="black"/>
<path d="M399.76 30.3899C391.1 30.3899 385.3 34.0099 382.11 38.1699L381.63 31.4799H371.92V106L382.66 117.84V80.5999C385.95 84.4299 391.54 87.5999 399.76 87.5999C414.89 87.5999 425.2 75.5399 425.2 58.9899C425.2 42.4399 414.89 30.3799 399.76 30.3799M397.76 78.0599C390.42 78.0599 385.92 74.1099 382.63 68.7399V49.2499C385.92 43.8799 390.41 39.9299 397.76 39.9299C407.41 39.9299 414.31 47.5999 414.31 58.9999C414.31 70.3999 407.4 78.0699 397.76 78.0699" fill="black"/>
<path d="M116.22 71.4899C113.46 75.2799 108.22 78.2999 101.06 78.2999C90.76 78.2999 84.84 72.7099 84.18 62.8499H124.51V58.5599C124.51 43.1099 116.07 30.3899 99.63 30.3899C84.17 30.3899 73.32 42.5599 73.32 59.1099C73.32 75.6599 84.06 87.6199 101.05 87.6199C110.45 87.6199 117.31 84.2199 122.47 78.4099L116.22 71.4899ZM99.64 39.5999C108.52 39.5999 113.56 45.4099 113.89 54.0699H84.18C84.73 45.2999 90.76 39.5999 99.64 39.5999Z" fill="black"/>
<path d="M298.26 31.49H286.1L261.65 67V0L250.91 11.87V86.52H259.57L274.58 64.48L288.4 86.52H301L281.38 55.6L298.26 31.49Z" fill="black"/>
<path d="M220.65 53.6299C212.65 51.7699 209.47 50.4499 209.47 46.0699C209.47 41.6899 213.42 39.7099 219.12 39.7099C223.561 39.7109 227.928 40.8431 231.81 42.9999L238.41 35.7299C234.02 32.7299 226.84 30.4199 219.55 30.4199C206.73 30.4199 198.72 36.6699 198.72 47.1999C198.72 55.7499 204.2 60.1999 217.46 63.3099C225.46 65.1799 228.75 66.9299 228.75 71.4199C228.75 76.1299 224.26 78.3299 217.68 78.3299C212.59 78.4005 207.603 76.8874 203.41 73.9999L196.76 81.3499C201.9 85.3499 209.31 87.6299 217.58 87.6299C231.06 87.6299 239.58 80.8299 239.58 70.2999C239.58 62.0799 233.77 56.8199 220.58 53.6399" fill="black"/>
</svg>
